Coordinates
version=1
nRows=9
nColumns=36
inDegrees=yes

Units are S.I. units (second, meters, Newtons, ...)
If the header above contains a line with 'inDegrees', this indicates whether rotational values are in degrees (yes) or radians (no).

endheader
time	pelvis_tilt	pelvis_list	pelvis_rotation	pelvis_tx	pelvis_ty	pelvis_tz	hip_flexion_r	hip_adduction_r	hip_rotation_r	knee_angle_r	knee_angle_r_beta	ankle_angle_r	subtalar_angle_r	mtp_angle_r	hip_flexion_l	hip_adduction_l	hip_rotation_l	knee_angle_l	knee_angle_l_beta	ankle_angle_l	subtalar_angle_l	mtp_angle_l	lumbar_extension	lumbar_bending	lumbar_rotation	arm_flex_r	arm_add_r	arm_rot_r	elbow_flex_r	pro_sup_r	arm_flex_l	arm_add_l	arm_rot_l	elbow_flex_l	pro_sup_l
      0.00000000	      0.72440994	     -3.31642163	    -10.41365372	      0.64934779	      0.91007247	      0.10343311	     17.51598044	      9.97242787	      2.92476470	     36.30379395	      0.63362074	     13.48817346	     -9.30825901	     -6.49286507	     47.02083538	     -7.64039180	      3.01349160	     33.67159221	      0.58768015	      6.95511382	     -8.56452026	     -6.49286507	    -23.42215548	      8.97546285	     -1.82777251	     55.46555534	     -4.40456617	     64.77150171	    114.20997383	     75.34143882	     49.35499930	      1.41428537	     66.06790694	    115.22451249	     89.60825960
      0.01666670	     -0.47932474	     -5.78524994	    -13.16989898	      0.64508028	      0.90048822	      0.10592690	     21.85269340	     13.50567906	      1.70248431	     41.20379041	      0.71914181	     12.91929885	    -10.32311070	     -6.59383702	     49.66409397	    -11.50186167	      5.39480393	     33.10684241	      0.57782341	      8.89759019	     -4.71573695	     -6.59383702	    -25.96484474	     11.07687465	      4.72057658	     58.46117494	     -6.62448034	     71.24773410	    122.23621803	     90.48686043	     51.37608872	      3.71965026	     66.21190610	    119.64081592	    105.38182175
      0.03333330	     -1.17699990	     -4.62458854	    -15.42867851	      0.64826919	      0.89154735	      0.10970369	     25.57688213	     13.24442839	      1.12272730	     46.84225135	      0.81755152	     18.43795452	     -8.16641850	     -6.61256187	     50.38933475	    -12.46143890	      4.49864312	     31.89711177	      0.55670962	      6.01166767	     -4.67992074	     -6.61256187	    -24.72511673	      9.00082184	      5.96589874	     57.58801539	     -4.49490204	     69.15101877	    123.29488660	     90.93762750	     51.45631605	      5.42924827	     65.63336365	    119.90301741	    106.07645045
      0.05000000	     -2.21382267	     -2.82653512	    -16.08454314	      0.65161747	      0.88518346	      0.11180573	     28.14941625	     12.13985402	      0.84765878	     49.80894428	      0.86933007	     23.44714967	     -6.48012123	     -6.79769081	     51.70708728	    -11.94912539	      3.12846883	     31.63972791	      0.55221743	      3.96339834	     -3.21844680	     -6.79769081	    -22.60105981	      7.12351384	      6.86121228	     55.27714626	     -5.21888962	     69.20517995	    122.81571414	     97.31363204	     49.31443887	      6.33096811	     64.90654139	    118.68729867	    110.18468293
      0.06666670	     -2.89246493	     -1.45554354	    -16.01903805	      0.65358196	      0.88118681	      0.11311116	     29.40004109	     11.32211015	      1.12448952	     51.32035960	      0.89570925	     26.33022553	     -5.82372707	     -6.86350522	     52.53005642	    -11.11790749	      1.86991514	     31.47680465	      0.54937388	      2.87926994	     -1.93518893	     -6.86350522	    -21.60009848	      6.02054947	      7.19750651	     53.60581890	     -5.96426515	     70.04589454	    121.24983055	     96.11632801	     46.26766982	      5.73869664	     63.69056642	    117.80478935	    109.08445892
      0.08333330	     -3.65832864	     -0.69913302	    -15.34886496	      0.65432997	      0.87448782	      0.11329823	     30.78491353	     10.84540293	      1.13479800	     52.65892757	      0.91907167	     28.09387445	     -5.45225904	     -6.99155260	     54.06767080	    -10.28915751	      1.45677199	     31.96293583	      0.55785847	      2.06007566	     -1.28614633	     -6.99155260	    -21.00202289	      6.14146816	      6.32453964	     53.82904352	     -5.10178099	     71.56958082	    119.49795689	     96.57156787	     44.87258112	      4.86917437	     62.78385396	    118.36366109	    107.75155591
      0.10000000	     -4.19512253	     -0.35685609	    -14.81076252	      0.65461708	      0.87178328	      0.11321126	     31.85060711	     10.69548149	      1.22520819	     53.71877841	      0.93756955	     28.93594032	     -5.18767622	     -7.03664312	     55.37589175	     -9.58204761	      1.75242778	     32.39655482	      0.56542655	      1.55154922	     -1.17750584	     -7.03664312	    -20.42435975	      6.43054286	      7.24998610	     52.66561940	     -5.45290706	     72.13514028	    119.39753520	     96.12503705	     40.62780228	      3.79923475	     62.13232883	    119.55735990	    106.30918741
      0.11666670	     -4.43266973	     -0.31650073	    -14.42311237	      0.65466052	      0.86943988	      0.11340972	     32.48604118	     10.68728662	      1.22728335	     54.61487806	      0.95320944	     29.23590095	     -5.16703481	     -7.05462365	     56.32881983	     -9.04544979	      2.47858823	     32.69462177	      0.57062880	      1.48648950	     -1.17037998	     -7.05462365	    -20.78326465	      6.79753432	      7.92182827	     51.72461041	     -5.68891559	     72.49463032	    119.45009722	     95.68068897	     37.07262031	      3.60603987	     62.48622047	    120.65807150	    105.52632294
      0.13333330	     -4.94633367	     -0.48850185	    -14.11283083	      0.65470703	      0.86908170	      0.11298785	     33.13732522	     10.92185506	      1.18372727	     55.12593865	      0.96212913	     29.27500000	     -5.23459313	     -7.09828217	     57.23726323	     -8.71552309	      3.29255910	     32.38991314	      0.56531063	      1.44959949	     -1.12088631	     -7.09828217	    -21.04576475	      7.85686210	      6.46904578	     52.69912367	     -3.83101925	     74.78844329	    118.17156177	     96.61042898	     35.56792754	      3.74028887	     60.79706074	    121.56243985	    105.54428800
